<svg width="201" height="68" viewBox="0 0 201 68" fill="none" xmlns="http://www.w3.org/2000/svg">
<g id="App Sore_v1_inverted(rus)" clip-path="url(#clip0_11_290)">
<path id="Vector" fill-rule="evenodd" clip-rule="evenodd" d="M52.1713 41.7246C51.1639 43.9583 50.6809 44.9558 49.3837 46.9293C47.5719 49.6854 45.0208 53.1178 41.8585 53.1473C39.0491 53.173 38.3276 51.3178 34.5147 51.3395C30.7019 51.3612 29.9054 53.1789 27.094 53.1533C23.9318 53.1237 21.5148 50.0245 19.703 47.2684C14.6402 39.5599 14.1099 30.5147 17.2327 25.7063C19.4526 22.2897 22.952 20.2886 26.2443 20.2886C29.5959 20.2886 31.7034 22.126 34.4733 22.126C37.1605 22.126 38.7988 20.2847 42.6747 20.2847C45.6043 20.2847 48.7074 21.8796 50.9175 24.6377C43.6742 28.6102 44.8512 38.9586 52.1713 41.7246Z" fill="black"/>
<path id="Vector_2" fill-rule="evenodd" clip-rule="evenodd" d="M39.7353 17.2092C41.1429 15.4033 42.2115 12.8502 41.8251 10.2419C39.5263 10.3997 36.8352 11.8625 35.264 13.7709C33.8386 15.5018 32.6616 18.0707 33.121 20.5666C35.6307 20.6435 38.2271 19.1452 39.7353 17.2092Z" fill="black"/>
<path id="Vector_3" d="M68.0901 26.8231C70.5852 26.8231 72.3026 25.5292 72.7801 23.3266H71.0474C70.6546 24.5665 69.5841 25.2904 68.0978 25.2904C66.0569 25.2904 64.7633 23.6502 64.7633 21.0549C64.7633 18.4827 66.0725 16.827 68.0901 16.827C69.5303 16.827 70.6854 17.6818 71.0474 18.9987H72.7801C72.4104 16.7808 70.5391 15.2944 68.0901 15.2944C64.9866 15.2944 62.9998 17.5355 62.9998 21.0549C62.9998 24.5975 64.9712 26.8231 68.0901 26.8231Z" fill="black"/>
<path id="Vector_4" d="M77.5856 22.3178L81.1742 18.5134H79.1874L76.0145 21.9789H75.953V18.5134H74.2971V26.615H75.953V22.88H76.0145L79.2258 26.615H81.3128L77.5856 22.3178Z" fill="black"/>
<path id="Vector_5" d="M84.994 25.4365C84.1007 25.4365 83.5154 24.9746 83.5154 24.266C83.5154 23.5728 84.0777 23.134 85.0711 23.0646L87.0656 22.9414V23.5805C87.0656 24.6357 86.157 25.4365 84.994 25.4365ZM84.5319 26.7534C85.5947 26.7534 86.6189 26.1835 87.0887 25.2825H87.1273V26.6148H88.7213V21.0316C88.7213 19.4066 87.4661 18.3669 85.5023 18.3669C83.5 18.3669 82.2525 19.4451 82.16 20.9084H83.7311C83.8774 20.1844 84.4781 19.7223 85.4407 19.7223C86.4572 19.7223 87.0656 20.2613 87.0656 21.1625V21.7863L84.8477 21.9172C82.9224 22.025 81.8367 22.8952 81.8367 24.3121C81.8367 25.7677 82.9456 26.7534 84.5319 26.7534Z" fill="black"/>
<path id="Vector_6" d="M97.0078 26.615V18.5134H95.3597V21.7017C95.021 22.1021 94.4126 22.441 93.5114 22.441C92.4872 22.441 91.9405 21.8095 91.9405 20.8007V18.5134H90.2847V20.9239C90.2847 22.6951 91.3398 23.8581 93.2496 23.8581C94.1429 23.8581 94.813 23.5807 95.2518 23.1649H95.3597V26.615H97.0078Z" fill="black"/>
<path id="Vector_7" d="M100.443 26.615L104.185 20.9239H104.247V26.615H105.887V18.5134H104.247L100.504 24.1891H100.443V18.5134H98.8022V26.615H100.443Z" fill="black"/>
<path id="Vector_8" d="M111.016 19.7225C111.825 19.7225 112.264 20.0998 112.264 20.7699C112.264 21.486 111.794 21.848 110.854 21.848H109.314V19.7225H111.016ZM110.962 23.0109C112.056 23.0109 112.595 23.4113 112.595 24.2122C112.595 24.9901 112.087 25.4059 111.147 25.4059H109.314V23.0109H110.962ZM107.674 26.615H111.401C113.157 26.615 114.251 25.7064 114.251 24.2816C114.251 23.2651 113.558 22.5258 112.51 22.3872V22.3255C113.288 22.1792 113.889 21.4168 113.889 20.5773C113.889 19.2989 112.934 18.5134 111.355 18.5134H107.674V26.615Z" fill="black"/>
<path id="Vector_9" d="M118.571 25.4365C117.678 25.4365 117.092 24.9746 117.092 24.266C117.092 23.5728 117.655 23.134 118.648 23.0646L120.643 22.9414V23.5805C120.643 24.6357 119.734 25.4365 118.571 25.4365ZM118.109 26.7534C119.172 26.7534 120.196 26.1835 120.666 25.2825H120.704V26.6148H122.298V21.0316C122.298 19.4066 121.043 18.3669 119.079 18.3669C117.077 18.3669 115.829 19.4451 115.737 20.9084H117.308C117.454 20.1844 118.055 19.7223 119.018 19.7223C120.034 19.7223 120.643 20.2613 120.643 21.1625V21.7863L118.425 21.9172C116.499 22.025 115.414 22.8952 115.414 24.3121C115.414 25.7677 116.523 26.7534 118.109 26.7534Z" fill="black"/>
<path id="Vector_10" d="M125.687 26.6148L129.43 20.9237H129.491V26.6148H131.132V18.5132H129.491L125.748 24.1889H125.687V18.5132H124.046V26.6148H125.687ZM125.148 14.9553C125.148 16.4108 126.18 17.3966 127.704 17.3966C129.237 17.3966 130.269 16.4108 130.269 14.9553H129.144C129.137 15.8255 128.582 16.4878 127.704 16.4878C126.834 16.4878 126.28 15.8255 126.272 14.9553H125.148Z" fill="black"/>
<path id="Vector_11" d="M139.079 18.5134H132.34V19.8303H134.882V26.615H136.537V19.8303H139.079V18.5134Z" fill="black"/>
<path id="Vector_12" d="M143.538 19.7069C144.701 19.7069 145.486 20.5772 145.525 21.817H141.474C141.559 20.5925 142.375 19.7069 143.538 19.7069ZM145.517 24.2352C145.294 24.9436 144.593 25.4211 143.646 25.4211C142.313 25.4211 141.466 24.4894 141.466 23.08V22.9798H147.188V22.41C147.188 19.9534 145.787 18.3669 143.538 18.3669C141.251 18.3669 139.788 20.0612 139.788 22.6025C139.788 25.1593 141.228 26.7688 143.607 26.7688C145.463 26.7688 146.865 25.7139 147.096 24.2352H145.517Z" fill="black"/>
<path id="Vector_13" d="M155.159 19.7225C155.968 19.7225 156.407 20.0998 156.407 20.7699C156.407 21.486 155.937 21.848 154.997 21.848H153.457V19.7225H155.159ZM155.105 23.0109C156.199 23.0109 156.738 23.4113 156.738 24.2122C156.738 24.9901 156.229 25.4059 155.29 25.4059H153.457V23.0109H155.105ZM151.817 26.615H155.544C157.3 26.615 158.394 25.7064 158.394 24.2816C158.394 23.2651 157.7 22.5258 156.653 22.3872V22.3255C157.431 22.1792 158.032 21.4168 158.032 20.5773C158.032 19.2989 157.077 18.5134 155.498 18.5134H151.817V26.615Z" fill="black"/>
<path id="Vector_14" d="M75.7874 52.7288H79.1083L71.8077 32.666H68.4166L61.116 52.7288H64.3809L66.2306 47.3065H73.9377L75.7874 52.7288ZM70.0421 36.0028H70.1262L73.1389 44.8039H67.0294L70.0421 36.0028Z" fill="black"/>
<path id="Vector_15" d="M88.6223 37.8657C86.4925 37.8657 84.7968 38.9364 83.928 40.6187H83.872V38.1021H80.9434V57.5672H83.9702V50.3233H84.0402C84.881 51.9502 86.5625 52.9789 88.6785 52.9789C92.3778 52.9789 94.8301 50.0454 94.8301 45.4155C94.8301 40.7855 92.3638 37.8657 88.6223 37.8657ZM87.8236 50.4345C85.4975 50.4345 83.9562 48.4603 83.9562 45.4155C83.9562 42.3984 85.5115 40.3963 87.8236 40.3963C90.2198 40.3963 91.7191 42.3566 91.7191 45.4155C91.7191 48.4881 90.2198 50.4345 87.8236 50.4345Z" fill="black"/>
<path id="Vector_16" d="M104.821 37.8657C102.691 37.8657 100.995 38.9364 100.126 40.6187H100.07V38.1021H97.1416V57.5672H100.168V50.3233H100.238C101.079 51.9502 102.761 52.9789 104.877 52.9789C108.576 52.9789 111.028 50.0454 111.028 45.4155C111.028 40.7855 108.562 37.8657 104.821 37.8657ZM104.022 50.4345C101.696 50.4345 100.154 48.4603 100.154 45.4155C100.154 42.3984 101.71 40.3963 104.022 40.3963C106.418 40.3963 107.917 42.3566 107.917 45.4155C107.917 48.4881 106.418 50.4345 104.022 50.4345Z" fill="black"/>
<path id="Vector_17" d="M118.608 47.1397C118.804 50.7687 121.831 53.0627 126.315 53.0627C131.107 53.0627 134.12 50.7131 134.12 46.9592C134.12 44.0254 132.396 42.3709 128.249 41.3976L126.021 40.8554C123.414 40.2159 122.349 39.3816 122.349 37.9635C122.349 36.1838 124.017 34.9603 126.455 34.9603C128.893 34.9603 130.561 36.1698 130.743 38.1721H133.798C133.7 34.7101 130.771 32.3325 126.497 32.3325C122.181 32.3325 119.14 34.7101 119.14 38.1721C119.14 40.9666 120.864 42.6907 124.577 43.5804L127.198 44.2062C129.818 44.8457 130.925 45.7773 130.925 47.3345C130.925 49.128 129.09 50.4349 126.539 50.4349C123.877 50.4349 121.929 49.128 121.705 47.1397H118.608Z" fill="black"/>
<path id="Vector_18" d="M137.426 34.6401V38.1021H135.282V40.4797H137.426V48.8774C137.426 51.6998 138.589 52.8261 141.574 52.8261C142.247 52.8261 142.919 52.7703 143.256 52.6869V50.3095C143.059 50.3511 142.569 50.3789 142.261 50.3789C141.028 50.3789 140.467 49.8089 140.467 48.5436V40.4797H143.269V38.1021H140.467V34.6401H137.426Z" fill="black"/>
<path id="Vector_19" d="M151.705 53.0067C155.923 53.0067 158.697 50.1287 158.697 45.4155C158.697 40.7161 155.909 37.8379 151.705 37.8379C147.501 37.8379 144.712 40.7161 144.712 45.4155C144.712 50.1287 147.487 53.0067 151.705 53.0067ZM151.705 50.5319C149.337 50.5319 147.795 48.6688 147.795 45.4155C147.795 42.1759 149.337 40.3127 151.705 40.3127C154.073 40.3127 155.614 42.1759 155.614 45.4155C155.614 48.6688 154.087 50.5319 151.705 50.5319Z" fill="black"/>
<path id="Vector_20" d="M161.008 52.7287H164.035V43.9694C164.035 41.8978 165.24 40.6047 167.188 40.6047C167.777 40.6047 168.309 40.6743 168.547 40.7717V37.9771C168.323 37.9353 167.945 37.8657 167.51 37.8657C165.773 37.8657 164.456 38.8808 163.965 40.5909H163.895V38.1021H161.008V52.7287Z" fill="black"/>
<path id="Vector_21" d="M175.917 40.2571C178.033 40.2571 179.463 41.8282 179.533 44.0668H172.162C172.316 41.8562 173.802 40.2571 175.917 40.2571ZM179.519 48.4325C179.112 49.7116 177.837 50.5737 176.114 50.5737C173.689 50.5737 172.148 48.8912 172.148 46.347V46.1662H182.559V45.1373C182.559 40.7021 180.009 37.8379 175.917 37.8379C171.756 37.8379 169.093 40.8966 169.093 45.4849C169.093 50.1009 171.714 53.0067 176.044 53.0067C179.421 53.0067 181.971 51.102 182.391 48.4325H179.519Z" fill="black"/>
<path id="Vector_22" d="M187.762 2.76008C191.36 2.76008 193.803 3.44616 195.228 4.8538C196.654 6.26341 197.346 8.68439 197.346 12.2548V54.8408C197.346 58.4013 196.656 60.8085 195.236 62.2003C193.817 63.5922 191.372 64.2704 187.762 64.2704H12.2094C8.62327 64.2704 6.20623 63.6001 4.82028 62.2181C3.43433 60.8381 2.76008 58.4289 2.76008 54.8526V12.2548C2.76008 8.15998 3.20761 5.90657 4.25446 4.71382C5.4275 3.3811 7.95888 2.75811 12.2212 2.75811H187.762V2.76008ZM187.762 0H12.2212C1.74476 0 0 3.62753 0 12.2548V54.8526C0 63.4739 3.5881 67.0305 12.2094 67.0305H187.764C196.391 67.0305 200.106 63.468 200.106 54.8408V12.2548C200.106 3.62753 196.389 0 187.762 0Z" fill="black"/>
</g>
<defs>
<clipPath id="clip0_11_290">
<rect width="200.106" height="67.0305" fill="white"/>
</clipPath>
</defs>
</svg>
