<svg width="116" height="116" viewBox="0 0 116 116" fill="none" xmlns="http://www.w3.org/2000/svg">
<circle cx="58" cy="58" r="58" fill="#886AA9"/>
<g clip-path="url(#clip0_157_542)">
<path opacity="0.994" fill-rule="evenodd" clip-rule="evenodd" d="M42.4844 33.9531C52.7969 33.9531 63.1094 33.9531 73.4219 33.9531C78.1719 34.8906 81.0156 37.7344 81.9531 42.4844C81.9531 52.7969 81.9531 63.1094 81.9531 73.4219C81.0156 78.1719 78.1719 81.0156 73.4219 81.9531C63.1094 81.9531 52.7969 81.9531 42.4844 81.9531C37.7344 81.0156 34.8906 78.1719 33.9531 73.4219C33.9531 63.1094 33.9531 52.7969 33.9531 42.4844C34.8906 37.7344 37.7344 34.8906 42.4844 33.9531ZM54.9531 43.8906C56.378 43.7597 57.3781 44.3534 57.9531 45.6719C58.3177 44.8541 58.9114 44.276 59.7344 43.9375C61.0432 43.6934 61.9651 44.1778 62.5 45.3906C62.7331 46.2722 62.5768 47.0847 62.0312 47.8281C59.4531 52.2812 56.875 56.7344 54.2969 61.1875C55.9844 61.2187 57.6719 61.25 59.3594 61.2812C60.2531 62.7847 61.1281 64.3004 61.9844 65.8281C56.1096 65.9375 50.2346 65.9531 44.3594 65.875C42.739 65.661 41.9734 64.7391 42.0625 63.1094C42.3218 62.2564 42.8687 61.6783 43.7031 61.375C45.4822 61.2744 47.2635 61.1962 49.0469 61.1406C51.1288 57.5236 53.2225 53.9142 55.3281 50.3125C54.6756 49.1794 54.035 48.0389 53.4062 46.8906C53.0807 45.4519 53.5964 44.4519 54.9531 43.8906ZM61.7031 52.3281C63.4667 55.2289 65.1855 58.1664 66.8594 61.1406C68.6428 61.1962 70.424 61.2744 72.2031 61.375C73.8308 62.1144 74.2527 63.2863 73.4688 64.8906C73.1487 65.3361 72.7268 65.633 72.2031 65.7812C71.3606 65.8687 70.5168 65.9468 69.6719 66.0156C70.2376 66.9723 70.7844 67.9412 71.3125 68.9219C71.6699 71.0958 70.748 72.1114 68.5469 71.9688C67.9542 71.782 67.5011 71.4227 67.1875 70.8906C64.5199 66.1957 61.8167 61.5239 59.0781 56.875C59.9424 55.3491 60.8174 53.8336 61.7031 52.3281ZM45.2031 67.7969C46.9534 67.7812 48.7034 67.7969 50.4531 67.8438C49.8167 69.0076 49.1448 70.1481 48.4375 71.2656C47.2235 72.2895 46.036 72.2583 44.875 71.1719C44.4885 70.5667 44.3635 69.9105 44.5 69.2031C44.6862 68.7058 44.9206 68.237 45.2031 67.7969Z" fill="white"/>
</g>
<defs>
<clipPath id="clip0_157_542">
<rect x="34" y="34" width="48" height="48" rx="24" fill="white"/>
</clipPath>
</defs>
</svg>
