<svg width="18" height="18" viewBox="0 0 18 18" fill="none" xmlns="http://www.w3.org/2000/svg">
<g clip-path="url(#clip0_1_86)">
<path opacity="0.971" fill-rule="evenodd" clip-rule="evenodd" d="M8.20898 -0.0175781C8.72462 -0.0175781 9.24022 -0.0175781 9.75586 -0.0175781C13.2808 0.423309 15.7945 2.25143 17.2969 5.4668C17.6588 6.35217 17.8874 7.26623 17.9824 8.20898C17.9824 8.72462 17.9824 9.24022 17.9824 9.75586C17.5415 13.2808 15.7134 15.7945 12.498 17.2969C11.6127 17.6588 10.6986 17.8874 9.75586 17.9824C9.24022 17.9824 8.72462 17.9824 8.20898 17.9824C4.68401 17.5415 2.17034 15.7134 0.667969 12.498C0.305998 11.6127 0.0774819 10.6986 -0.0175781 9.75586C-0.0175781 9.24022 -0.0175781 8.72462 -0.0175781 8.20898C0.423309 4.68401 2.25143 2.17034 5.4668 0.667969C6.35217 0.305998 7.26623 0.0774819 8.20898 -0.0175781ZM8.56055 1.38867C11.6618 1.35964 14.0114 2.66042 15.6094 5.29102C16.9374 7.85974 16.8905 10.4027 15.4688 12.9199C13.6651 15.6174 11.1397 16.8069 7.89258 16.4883C5.45551 16.0645 3.60981 14.793 2.35547 12.6738C1.02745 10.1051 1.07433 7.56211 2.49609 5.04492C3.9183 2.84219 5.93979 1.62344 8.56055 1.38867Z" fill="white"/>
<path opacity="0.976" fill-rule="evenodd" clip-rule="evenodd" d="M8.91208 4.13086C9.29195 4.12988 9.54391 4.30566 9.66794 4.65821C9.67965 5.99414 9.69139 7.33008 9.7031 8.66602C10.5703 9.32228 11.4375 9.97851 12.3047 10.6348C12.5427 10.9426 12.5544 11.259 12.3398 11.584C12.0363 11.8598 11.7023 11.9009 11.3379 11.707C10.4121 11.0156 9.48629 10.3242 8.56052 9.63282C8.45741 9.55322 8.38122 9.45359 8.33201 9.33399C8.27396 7.77748 8.26226 6.21886 8.29685 4.65821C8.39015 4.34785 8.59526 4.17207 8.91208 4.13086Z" fill="white"/>
</g>
<defs>
<clipPath id="clip0_1_86">
<rect width="18" height="18" fill="white"/>
</clipPath>
</defs>
</svg>
