<svg width="372" height="372" viewBox="0 0 372 372" fill="none" xmlns="http://www.w3.org/2000/svg">
<path d="M369 186C370.657 186 372.003 187.344 371.976 189C371.366 226.811 359.244 263.564 337.189 294.341C314.552 325.931 282.589 349.637 245.788 362.129C208.987 374.621 169.197 375.272 132.007 363.991C94.817 352.709 62.0949 330.062 38.4363 299.23C14.7777 268.397 1.37117 230.928 0.0995869 192.086C-1.17199 153.243 9.75526 114.978 31.3466 82.6639C52.938 50.3501 84.1089 25.6112 120.481 11.9215C155.917 -1.41564 194.556 -3.61246 231.236 5.58462C232.843 5.98759 233.793 7.63517 233.364 9.23557L187.012 182.224C186.501 184.129 187.937 186 189.91 186H369Z" fill="url(#paint0_linear_21_655)"/>
<defs>
<linearGradient id="paint0_linear_21_655" x1="31.5" y1="322.5" x2="298.5" y2="54.5" gradientUnits="userSpaceOnUse">
<stop stop-color="#27B7F2"/>
<stop offset="1" stop-color="#27B7F2" stop-opacity="0"/>
</linearGradient>
</defs>
</svg>
