<svg width="201" height="68" viewBox="0 0 201 68" fill="none" xmlns="http://www.w3.org/2000/svg">
<g id="Frame" clip-path="url(#clip0_11_313)">
<path id="Vector" d="M187.868 2.76008C191.466 2.76008 193.909 3.44616 195.334 4.8538C196.759 6.26341 197.451 8.68439 197.451 12.2548V54.8408C197.451 58.4013 196.761 60.8085 195.342 62.2003C193.922 63.5922 191.478 64.2704 187.868 64.2704H12.3131C8.72702 64.2704 6.30996 63.6001 4.924 62.2181C3.53805 60.8381 2.86382 58.4289 2.86382 54.8526V12.2548C2.86382 8.15998 3.31133 5.90657 4.35819 4.71382C5.53122 3.3811 8.06262 2.75811 12.325 2.75811H187.868V2.76008ZM187.868 0H12.3269C1.85048 0 0.105713 3.62753 0.105713 12.2548V54.8526C0.105713 63.4739 3.69383 67.0305 12.3151 67.0305H187.87C196.497 67.0305 200.211 63.468 200.211 54.8408V12.2548C200.211 3.62753 196.495 0 187.868 0Z" fill="black"/>
<path id="Vector_2" d="M100.865 38.3578C97.2701 38.3578 94.4249 41.0526 94.4249 44.7975C94.4249 48.3919 97.2701 51.2373 100.865 51.2373C104.459 51.2373 107.304 48.5425 107.304 44.7975C107.304 40.904 104.459 38.3578 100.865 38.3578ZM100.865 48.5405C98.9187 48.5405 97.2701 46.8939 97.2701 44.647C97.2701 42.4001 98.9167 40.7536 100.865 40.7536C102.81 40.7536 104.459 42.2515 104.459 44.647C104.459 46.8939 102.812 48.5405 100.865 48.5405ZM86.9389 38.3578C83.3445 38.3578 80.4993 41.0526 80.4993 44.7975C80.4993 48.3919 83.3445 51.2373 86.9389 51.2373C90.5331 51.2373 93.3786 48.5425 93.3786 44.7975C93.3766 40.904 90.5331 38.3578 86.9389 38.3578ZM86.9389 48.5405C84.9931 48.5405 83.3445 46.8939 83.3445 44.647C83.3445 42.4001 84.9911 40.7536 86.9389 40.7536C88.8866 40.7536 90.5331 42.2515 90.5331 44.647C90.5331 46.8939 88.8846 48.5405 86.9389 48.5405ZM70.3166 40.3056V43.0005H76.7562C76.6056 44.4984 76.0072 45.6951 75.2583 46.4443C74.3607 47.3419 72.8627 48.3899 70.3166 48.3899C66.2744 48.3899 63.2786 45.2454 63.2786 41.2033C63.2786 37.1611 66.4231 34.0166 70.3166 34.0166C72.4128 34.0166 74.0594 34.914 75.2583 35.9623L77.2041 34.0166C75.5573 32.5185 73.4611 31.3218 70.4652 31.3218C65.0736 31.3218 60.4331 35.8136 60.4331 41.2052C60.4331 46.5966 65.0756 51.0887 70.4652 51.0887C73.4591 51.0887 75.5556 50.1911 77.3528 48.2432C79.1498 46.446 79.7483 43.8998 79.7483 41.9542C79.7483 41.3556 79.7483 40.7553 79.5977 40.3076L70.3166 40.3056ZM138.3 42.4019C137.702 40.904 136.204 38.3598 132.908 38.3598C129.613 38.3598 126.918 40.906 126.918 44.7994C126.918 48.3939 129.613 51.2391 133.208 51.2391C136.053 51.2391 137.85 49.4421 138.449 48.3939L136.352 46.8959C135.603 47.944 134.706 48.6929 133.208 48.6929C131.71 48.6929 130.812 48.0946 130.063 46.7473L138.599 43.1529L138.3 42.4019ZM129.615 44.4984C129.615 42.1028 131.561 40.7553 132.91 40.7553C133.959 40.7553 135.007 41.3539 135.306 42.1028L129.615 44.4984ZM122.577 50.6368H125.423V31.9182H122.577V50.6368ZM118.085 39.7053C117.336 38.9564 116.139 38.2074 114.641 38.2074C111.497 38.2074 108.503 41.0526 108.503 44.647C108.503 48.2413 111.348 50.9361 114.641 50.9361C116.139 50.9361 117.336 50.1871 117.937 49.4381H118.087V50.3358C118.087 52.7313 116.74 54.0786 114.643 54.0786C112.997 54.0786 111.798 52.88 111.499 51.8317L109.103 52.88C109.852 54.5265 111.649 56.623 114.794 56.623C118.089 56.623 120.784 54.6772 120.784 50.0347V38.6531H118.089V39.7053H118.085ZM114.79 48.5405C112.844 48.5405 111.196 46.8939 111.196 44.647C111.196 42.4001 112.842 40.7536 114.79 40.7536C116.738 40.7536 118.234 42.4001 118.234 44.647C118.234 46.8939 116.738 48.5405 114.79 48.5405ZM151.328 31.9201H144.589V50.6388H147.434V43.6008H151.328C154.473 43.6008 157.466 41.3539 157.466 37.7614C157.466 34.169 154.473 31.9201 151.328 31.9201ZM151.478 40.904H147.436V34.4643H151.478C153.575 34.4643 154.774 36.2615 154.774 37.6088C154.623 39.2574 153.424 40.904 151.478 40.904ZM168.697 38.2092C166.601 38.2092 164.505 39.1068 163.756 41.0546L166.302 42.1028C166.9 41.0546 167.8 40.7553 168.848 40.7553C170.346 40.7553 171.693 41.653 171.842 43.1509V43.3015C171.392 43.0022 170.195 42.5525 168.996 42.5525C166.302 42.5525 163.605 44.0505 163.605 46.7453C163.605 49.2915 165.852 50.9381 168.247 50.9381C170.193 50.9381 171.093 50.0404 171.842 49.1408H171.992V50.6388H174.687V43.4521C174.388 40.155 171.842 38.2092 168.697 38.2092ZM168.398 48.5405C167.5 48.5405 166.151 48.0908 166.151 46.8939C166.151 45.396 167.798 44.9481 169.145 44.9481C170.344 44.9481 170.942 45.2474 171.691 45.5466C171.394 47.3436 169.896 48.5405 168.398 48.5405ZM184.121 38.6571L180.976 46.7433H180.828L177.533 38.6571H174.538L179.48 50.0385L176.635 56.3275H179.48L187.117 38.6571H184.121ZM158.964 50.6368H161.81V31.9182H158.964V50.6368Z" fill="black"/>
<path id="Vector_3" d="M68.3958 23.5579C67.6198 24.4439 66.7126 24.8743 65.6162 24.8743C64.6356 24.8743 63.7977 24.5403 63.126 23.8803C62.4541 23.222 62.1145 22.3417 62.1145 21.2665C62.1145 20.1912 62.4541 19.3111 63.126 18.6528C63.7977 17.9926 64.6356 17.6587 65.6162 17.6587C66.6798 17.6587 67.4964 18.0313 68.1101 18.7957L68.2434 18.9617L69.3764 17.8633L69.2568 17.7262C68.3284 16.6491 67.1025 16.1047 65.6142 16.1047C64.1684 16.1047 62.9368 16.6028 61.9562 17.5834C60.9755 18.564 60.4775 19.8052 60.4775 21.2684C60.4775 22.7337 60.9755 23.9729 61.9562 24.9535C62.9368 25.9342 64.1684 26.4322 65.6142 26.4322C66.4095 26.4322 67.1565 26.2719 67.8361 25.9555C68.5155 25.6388 69.087 25.2025 69.5387 24.66L69.6507 24.5249L68.5291 23.4034L68.3958 23.5579Z" fill="black"/>
<path id="Vector_4" d="M81.752 16.3711L78.1925 25.7815L74.6137 20.6681L78.1308 16.6336V16.3711H76.1984L72.1466 20.9518V16.3711H70.6023V26.2159H72.1466V23.3456L73.4458 21.8977L76.5053 26.2159H78.0149H78.3005H79.7851L80.7154 23.7064H84.4449L85.3618 26.2159H87.132L83.3966 16.3711H81.752ZM83.8832 22.1621H81.2694L82.5763 18.5543L83.8832 22.1621Z" fill="black"/>
<path id="Vector_5" d="M92.6105 20.1624C92.2242 20.7298 91.5372 21.0078 90.7206 21.0078C90.155 21.0078 89.7033 20.8591 89.406 20.5658C89.1048 20.2685 88.9427 19.8555 88.9427 19.3014V16.3711H87.3984V19.5118C87.3984 20.4345 87.6898 21.1797 88.3057 21.7297C88.9157 22.2741 89.6723 22.5501 90.5777 22.5501C91.4136 22.5501 92.0949 22.3107 92.6568 21.836L92.6122 22.1428V26.2159H94.3497V16.3711H92.6122V20.1624H92.6105Z" fill="black"/>
<path id="Vector_6" d="M97.0521 23.3223L97.0501 22.0773V16.3711H95.5059V26.2159H97.0925L101.693 18.8786L101.683 20.0968V26.2159H103.227V16.3711H101.451L97.0521 23.3223Z" fill="black"/>
<path id="Vector_7" d="M110.258 21.087C110.537 20.9094 110.773 20.6815 110.962 20.4035C111.219 20.0272 111.348 19.5871 111.348 19.0987C111.348 18.3015 111.051 17.6567 110.468 17.1297C109.889 16.6066 109.194 16.3711 108.405 16.3711H104.771V26.2159H108.59C109.416 26.2159 110.14 25.9399 110.746 25.3955C111.358 24.8453 111.667 24.1446 111.667 23.3127C111.667 22.7587 111.501 22.2624 111.175 21.8398C110.925 21.5154 110.617 21.2645 110.258 21.087ZM109.37 20.0138C109.126 20.2801 108.81 20.4248 108.403 20.4248H106.316V17.9154H108.457C108.847 17.9154 109.148 18.0196 109.383 18.2802C109.623 18.5466 109.738 18.8284 109.738 19.145C109.738 19.4616 109.619 19.7435 109.37 20.0138ZM109.642 24.2393C109.385 24.5269 109.059 24.6716 108.642 24.6716H106.316V21.9691H108.59C109.024 21.9691 109.366 22.085 109.632 22.3707C109.902 22.6603 110.032 22.9574 110.032 23.301C110.032 23.6447 109.904 23.9459 109.642 24.2393Z" fill="black"/>
<path id="Vector_8" d="M115.514 16.3711L111.779 26.2159H113.549L114.479 23.7064H118.209L119.125 26.2159H120.896L117.161 16.3711H115.514ZM117.645 22.1621H115.031L116.338 18.5543L117.645 22.1621Z" fill="black"/>
<path id="Vector_9" d="M123.094 23.3223L123.11 22.0773V16.3711H121.565V26.2159H123.118L127.735 18.8786L127.743 20.0968V26.2159H129.287V16.3711H127.476L123.094 23.3223Z" fill="black"/>
<path id="Vector_10" d="M125.365 15.9833C125.867 15.9833 126.268 15.8018 126.641 15.4447C127.015 15.0857 127.164 14.6378 127.164 14.1166V13.8618H125.813V14.1147C125.813 14.2711 125.801 14.4043 125.699 14.5181C125.602 14.6282 125.502 14.6784 125.343 14.6784C125.177 14.6784 125.071 14.6282 124.975 14.522C124.874 14.412 124.845 14.2788 124.845 14.1128V13.8618H123.494V14.1147C123.494 14.6378 123.67 15.0857 124.054 15.4447C124.436 15.8018 124.863 15.9833 125.365 15.9833Z" fill="black"/>
<path id="Vector_11" d="M130.059 17.9154H132.762V26.2159H134.499V17.9154H137.009V16.3711H130.059V17.9154Z" fill="black"/>
<path id="Vector_12" d="M137.974 26.2159H143.958V24.6716H139.711V21.9691H143.572V20.4248H139.711V17.9154H143.958V16.3711H137.974V26.2159Z" fill="black"/>
<path id="Vector_13" d="M154.586 21.8398C154.337 21.5154 154.029 21.2645 153.669 21.087C153.949 20.9094 154.185 20.6815 154.374 20.4035C154.631 20.0272 154.76 19.5871 154.76 19.0987C154.76 18.3015 154.463 17.6567 153.878 17.1297C153.299 16.6066 152.604 16.3711 151.814 16.3711H148.205V26.2159H152.002C152.828 26.2159 153.552 25.9399 154.158 25.3955C154.77 24.8453 155.079 24.1446 155.079 23.3127C155.079 22.7587 154.913 22.2624 154.586 21.8398ZM152.781 20.0138C152.538 20.2801 152.222 20.4248 151.814 20.4248H149.749V17.9154H151.868C152.258 17.9154 152.559 18.0196 152.795 18.2802C153.034 18.5485 153.15 18.8284 153.15 19.145C153.15 19.4616 153.03 19.7435 152.781 20.0138ZM153.054 24.2393C152.797 24.5269 152.471 24.6716 152.054 24.6716H149.749V21.9691H152.002C152.436 21.9691 152.778 22.085 153.044 22.3707C153.314 22.6603 153.444 22.9574 153.444 23.301C153.442 23.6447 153.314 23.9459 153.054 24.2393Z" fill="black"/>
<path id="Vector_14" fill-rule="evenodd" clip-rule="evenodd" d="M42.8356 27.6127L18.8821 13.832L37.8024 32.6538L42.8356 27.6127Z" fill="black"/>
<path id="Vector_15" fill-rule="evenodd" clip-rule="evenodd" d="M16.6602 13.9722C16.5695 14.1378 16.469 14.329 16.469 14.5419V53.5399C16.469 53.6621 16.5321 53.7784 16.5656 53.8868L36.6018 33.8132L16.6602 13.9722Z" fill="black"/>
<path id="Vector_16" fill-rule="evenodd" clip-rule="evenodd" d="M37.8065 34.9663L18.1626 54.6457C18.2198 54.624 18.2769 54.5984 18.3321 54.5648L43.1532 40.2834L37.8065 34.9663Z" fill="black"/>
<path id="Vector_17" fill-rule="evenodd" clip-rule="evenodd" d="M52.2219 33.0146L44.3024 28.4585L38.9617 33.8091L44.6218 39.4397L52.2219 35.0669C53.0144 34.6115 53.0144 33.47 52.2219 33.0146Z" fill="black"/>
</g>
<defs>
<clipPath id="clip0_11_313">
<rect width="200.106" height="67.0305" fill="white" transform="translate(0.105713)"/>
</clipPath>
</defs>
</svg>
