<svg width="18" height="18" viewBox="0 0 18 18" fill="none" xmlns="http://www.w3.org/2000/svg">
<g clip-path="url(#clip0_1_101)">
<path opacity="0.967" fill-rule="evenodd" clip-rule="evenodd" d="M8.2793 -0.0175781C8.74804 -0.0175781 9.21681 -0.0175781 9.68555 -0.0175781C12.512 0.412235 14.4163 1.97083 15.3984 4.6582C15.772 5.99857 15.7954 7.34621 15.4688 8.70117C15.0959 10.1147 14.5216 11.4389 13.7461 12.6738C12.5349 14.5892 11.0877 16.3177 9.4043 17.8594C9.32601 17.8925 9.2557 17.9335 9.19337 17.9824C9.05274 17.9824 8.91212 17.9824 8.77149 17.9824C8.70916 17.9335 8.63885 17.8925 8.56055 17.8594C6.40498 15.904 4.66475 13.6364 3.33985 11.0566C2.7672 9.88945 2.41563 8.65898 2.28516 7.36523C2.12779 4.48618 3.27037 2.30064 5.7129 0.808594C6.52125 0.373089 7.3767 0.0976964 8.2793 -0.0175781ZM8.5254 1.24805C10.6109 1.17469 12.269 1.97156 13.5 3.63867C14.3175 4.91017 14.5987 6.29297 14.3438 7.78711C14.0929 9.0553 13.6476 10.2506 13.0078 11.373C11.8993 13.25 10.5575 14.9492 8.98243 16.4707C7.40732 14.9492 6.06551 13.25 4.95704 11.373C4.31726 10.2506 3.87194 9.0553 3.6211 7.78711C3.30011 5.67939 3.92707 3.9157 5.50196 2.49609C6.38783 1.78098 7.39565 1.36497 8.5254 1.24805Z" fill="white"/>
<path opacity="0.967" fill-rule="evenodd" clip-rule="evenodd" d="M8.52541 3.56827C9.88342 3.44759 10.9322 3.95151 11.6719 5.07999C12.3897 6.51521 12.2081 7.82186 11.127 8.99991C10.1234 9.85864 8.9984 10.0578 7.75197 9.59757C6.27421 8.82757 5.67068 7.61468 5.94142 5.95889C6.32744 4.64447 7.18876 3.84762 8.52541 3.56827ZM8.73634 4.83389C7.59591 5.12601 7.07444 5.86429 7.17189 7.04874C7.46249 8.08926 8.14804 8.58728 9.22853 8.54288C10.376 8.26177 10.8975 7.52936 10.793 6.34561C10.5014 5.31033 9.81585 4.80644 8.73634 4.83389Z" fill="white"/>
</g>
<defs>
<clipPath id="clip0_1_101">
<rect width="18" height="18" fill="white"/>
</clipPath>
</defs>
</svg>
