<svg width="18" height="19" viewBox="0 0 18 19" fill="none" xmlns="http://www.w3.org/2000/svg">
<path fill-rule="evenodd" clip-rule="evenodd" d="M6.82031 0.5C7.3125 0.5 7.80469 0.5 8.29688 0.5C10.8699 0.81028 12.8328 2.06419 14.1855 4.26172C15.3159 6.36441 15.4566 8.53239 14.6074 10.7656C14.2591 11.5684 13.7962 12.295 13.2188 12.9453C14.7769 14.4976 16.3413 16.0445 17.9121 17.5859C17.9335 17.641 17.9628 17.6879 18 17.7266C18 17.8555 18 17.9844 18 18.1133C17.9297 18.3008 17.8008 18.4297 17.6133 18.5C17.4844 18.5 17.3555 18.5 17.2266 18.5C17.1539 18.4692 17.0835 18.4282 17.0156 18.377C15.4624 16.8413 13.9038 15.312 12.3398 13.7891C9.94159 15.5253 7.35173 15.871 4.57031 14.8262C1.93056 13.5951 0.40712 11.5385 0 8.65625C0 8.18751 0 7.71874 0 7.25C0.36786 4.49765 1.78583 2.4879 4.25391 1.2207C5.07843 0.853574 5.93388 0.613339 6.82031 0.5ZM7.3125 1.66016C9.62599 1.65385 11.4717 2.56792 12.8496 4.40234C14.0645 6.2741 14.2755 8.25455 13.4824 10.3438C12.5871 12.3242 11.0813 13.5723 8.96484 14.0879C6.76533 14.5079 4.83173 13.9806 3.16406 12.5059C1.24343 10.5356 0.733669 8.24461 1.63477 5.63281C2.52077 3.61029 4.03833 2.33881 6.1875 1.81836C6.56476 1.74353 6.93974 1.69079 7.3125 1.66016Z" fill="#0E0E10"/>
</svg>
