<svg width="18" height="18" viewBox="0 0 18 18" fill="none" xmlns="http://www.w3.org/2000/svg">
<path opacity="0.977" fill-rule="evenodd" clip-rule="evenodd" d="M6.20508 -0.0175781C6.3457 -0.0175781 6.48633 -0.0175781 6.62695 -0.0175781C8.46724 0.820378 10.3188 1.64069 12.1816 2.44336C13.8414 1.63106 15.4937 0.810749 17.1387 -0.0175781C17.2793 -0.0175781 17.4199 -0.0175781 17.5605 -0.0175781C17.6403 0.0343041 17.7223 0.0870384 17.8066 0.140625C17.8704 0.227793 17.929 0.315684 17.9824 0.404297C17.9824 5.26757 17.9824 10.1309 17.9824 14.9941C17.9093 15.1202 17.8156 15.2316 17.7012 15.3281C15.9284 16.2145 14.1589 17.0993 12.3926 17.9824C12.2637 17.9824 12.1348 17.9824 12.0059 17.9824C10.1373 17.1567 8.26812 16.3247 6.39844 15.4863C4.54247 16.3293 2.68504 17.1613 0.826172 17.9824C0.685547 17.9824 0.544922 17.9824 0.404297 17.9824C0.216797 17.8887 0.076172 17.748 -0.0175781 17.5605C-0.0175781 12.6973 -0.0175781 7.83397 -0.0175781 2.9707C0.0950203 2.7704 0.259083 2.62392 0.474609 2.53125C2.3898 1.68423 4.29996 0.83462 6.20508 -0.0175781ZM5.64258 1.66992C5.67773 1.66992 5.71289 1.66992 5.74805 1.66992C5.75392 5.88867 5.74805 10.1074 5.73047 14.3262C4.25468 14.9997 2.77226 15.6559 1.2832 16.2949C1.27734 12.0762 1.2832 7.85742 1.30078 3.63867C2.7525 2.98516 4.19977 2.32892 5.64258 1.66992ZM7.08398 1.66992C8.57239 2.31156 10.0548 2.96781 11.5312 3.63867C11.5547 7.86913 11.5547 12.0996 11.5312 16.3301C10.0632 15.6693 8.59247 15.0131 7.11914 14.3613C7.08398 10.1309 7.07228 5.90045 7.08398 1.66992ZM16.6465 1.70508C16.6875 5.91796 16.6933 10.1367 16.6641 14.3613C15.407 14.9986 14.1473 15.6315 12.8848 16.2598C12.8379 12.041 12.8379 7.82227 12.8848 3.60352C14.1463 2.97863 15.4002 2.34582 16.6465 1.70508Z" fill="white"/>
</svg>
