<svg width="18" height="18" viewBox="0 0 18 18" fill="none" xmlns="http://www.w3.org/2000/svg">
<g clip-path="url(#clip0_1_96)">
<path opacity="0.967" fill-rule="evenodd" clip-rule="evenodd" d="M8.24414 -0.0175781C8.74804 -0.0175781 9.25196 -0.0175781 9.75586 -0.0175781C12.6358 0.335105 14.8916 1.7062 16.5234 4.0957C17.3497 5.37339 17.836 6.76789 17.9824 8.2793C17.9824 8.78319 17.9824 9.28712 17.9824 9.79102C17.5559 13.305 15.7395 15.807 12.5332 17.2969C11.6478 17.6588 10.7338 17.8874 9.79102 17.9824C9.26367 17.9824 8.73633 17.9824 8.20898 17.9824C4.72282 17.5554 2.22086 15.7624 0.703125 12.6035C0.318665 11.6984 0.0784311 10.7609 -0.0175781 9.79102C-0.0175781 9.27538 -0.0175781 8.75978 -0.0175781 8.24414C0.339077 5.20323 1.80392 2.86535 4.37695 1.23047C5.57968 0.534603 6.86872 0.118588 8.24414 -0.0175781ZM8.87695 1.17773C11.8959 1.27678 14.1752 2.61272 15.7148 5.18555C16.8652 7.31475 17.0292 9.51789 16.207 11.7949C15.1442 14.3158 13.2867 15.9154 10.6348 16.5938C7.88748 17.0995 5.50856 16.3906 3.49805 14.4668C1.57065 12.4277 0.885108 10.0254 1.44141 7.25977C2.10456 4.74532 3.61041 2.93478 5.95898 1.82812C6.896 1.42872 7.86867 1.21192 8.87695 1.17773Z" fill="white"/>
<path opacity="0.973" fill-rule="evenodd" clip-rule="evenodd" d="M5.32618 4.23638C5.75688 4.17957 6.10257 4.32019 6.36329 4.65826C7.2512 6.44581 8.1301 8.23878 9.00001 10.0372C9.73829 8.49029 10.4766 6.94341 11.2149 5.39654C11.3522 5.08653 11.5162 4.79354 11.707 4.51763C12.084 4.22429 12.5 4.15985 12.9551 4.32427C13.2451 4.46212 13.415 4.69064 13.4649 5.00982C13.4883 7.72856 13.4883 10.4473 13.4649 13.1661C13.3975 13.4795 13.2042 13.6611 12.8848 13.711C12.449 13.7656 12.1384 13.5957 11.9531 13.2012C11.9414 11.2208 11.9297 9.24028 11.918 7.25982C11.1562 8.80669 10.3946 10.3536 9.63282 11.9004C9.19924 12.3692 8.76562 12.3692 8.33204 11.9004C7.57031 10.3536 6.80861 8.80669 6.04688 7.25982C6.03518 9.24028 6.02343 11.2208 6.01173 13.2012C5.90317 13.4854 5.6981 13.6553 5.39649 13.711C5.10659 13.7572 4.85463 13.681 4.64063 13.4825C4.56519 13.3902 4.51833 13.2847 4.50001 13.1661C4.47656 10.4473 4.47656 7.72856 4.50001 5.00982C4.59384 4.55602 4.86922 4.29822 5.32618 4.23638Z" fill="white"/>
</g>
<defs>
<clipPath id="clip0_1_96">
<rect width="18" height="18" fill="white"/>
</clipPath>
</defs>
</svg>
