<svg width="12" height="13" viewBox="0 0 12 13" fill="none" xmlns="http://www.w3.org/2000/svg">
<g clip-path="url(#clip0_7_1100)">
<path opacity="0.968" fill-rule="evenodd" clip-rule="evenodd" d="M11.9883 2.62109C11.9883 5.48827 11.9883 8.35548 11.9883 11.2227C11.8415 11.7718 11.4899 12.1116 10.9336 12.2422C7.5664 12.2578 4.19923 12.2578 0.832031 12.2422C0.392855 12.135 0.111606 11.8655 -0.0117188 11.4336C-0.0117188 7.89453 -0.0117188 4.35547 -0.0117188 0.816406C0.00741645 0.777884 0.0386665 0.75054 0.0820312 0.734375C3.28516 0.71875 6.48827 0.71875 9.69141 0.734375C9.71876 0.76172 9.74609 0.789062 9.77344 0.816406C9.78516 1.01938 9.78905 1.22251 9.78516 1.42578C10.1312 1.41485 10.4749 1.42656 10.8164 1.46094C10.8359 1.48047 10.8555 1.5 10.875 1.51953C10.8867 1.85538 10.8906 2.19132 10.8867 2.52734C11.2071 2.52344 11.5274 2.52735 11.8477 2.53906C11.9036 2.55227 11.9505 2.57962 11.9883 2.62109ZM0.363281 1.09766C3.37891 1.09766 6.39452 1.09766 9.41016 1.09766C9.40624 4.44922 9.41016 7.80078 9.42188 11.1523C9.45902 11.4284 9.57232 11.6667 9.76172 11.8672C6.83203 11.8828 3.90234 11.8828 0.972656 11.8672C0.643451 11.8114 0.444232 11.62 0.375 11.293C0.363281 7.89453 0.359374 4.49609 0.363281 1.09766ZM9.78516 1.82422C10.0273 1.82422 10.2695 1.82422 10.5117 1.82422C10.5078 4.64455 10.5117 7.46485 10.5234 10.2852C10.6614 10.7274 10.9622 10.9188 11.4258 10.8594C11.4814 10.8421 11.5361 10.8226 11.5898 10.8008C11.6278 11.4389 11.327 11.7983 10.6875 11.8789C10.1774 11.8219 9.88048 11.5406 9.79688 11.0352C9.78516 7.96484 9.78124 4.89453 9.78516 1.82422ZM10.8867 2.92578C11.1289 2.92578 11.3711 2.92578 11.6133 2.92578C11.6172 5.35548 11.6133 7.78517 11.6016 10.2148C11.4776 10.4801 11.2862 10.5465 11.0273 10.4141C10.9567 10.347 10.9137 10.2649 10.8984 10.168C10.8867 7.75393 10.8828 5.33987 10.8867 2.92578Z" fill="#0E0E10"/>
<path opacity="0.939" fill-rule="evenodd" clip-rule="evenodd" d="M3.24609 2.22314C3.57431 2.21924 3.90244 2.22315 4.23047 2.23486C4.35459 2.27111 4.40536 2.35314 4.38281 2.48096C4.36676 2.54089 4.3316 2.58386 4.27734 2.60986C4.00401 2.62158 3.73057 2.62548 3.45703 2.62158C3.45703 2.83252 3.45703 3.04346 3.45703 3.25439C3.73057 3.25048 4.00401 3.25439 4.27734 3.26611C4.42275 3.37205 4.43055 3.48924 4.30078 3.61767C4.01965 3.62939 3.7384 3.63331 3.45703 3.62939C3.45703 3.84033 3.45703 4.05127 3.45703 4.26221C3.72276 4.25829 3.98841 4.26221 4.25391 4.27392C4.43834 4.40117 4.43834 4.52618 4.25391 4.64892C3.91015 4.66456 3.56641 4.66456 3.22266 4.64892C3.17979 4.64253 3.14463 4.62298 3.11719 4.59033C3.07847 3.84235 3.07066 3.09235 3.09375 2.34033C3.13038 2.2812 3.18117 2.24214 3.24609 2.22314Z" fill="#0E0E10"/>
<path opacity="0.924" fill-rule="evenodd" clip-rule="evenodd" d="M7.88673 2.22266C8.31605 2.25362 8.56604 2.48019 8.63673 2.90234C8.65175 3.04348 8.58924 3.12163 8.44923 3.13672C8.3904 3.12891 8.33961 3.10548 8.29688 3.06641C8.26269 2.96562 8.23142 2.86407 8.20313 2.76172C8.03802 2.58569 7.86615 2.57788 7.68751 2.73828C7.56556 2.97055 7.62416 3.1385 7.86329 3.24219C8.25301 3.23963 8.50693 3.42324 8.62501 3.79297C8.67352 4.30559 8.44306 4.59465 7.9336 4.66016C7.66374 4.6404 7.4567 4.51541 7.31251 4.28516C7.23303 4.14179 7.2174 3.99336 7.26563 3.83984C7.37335 3.74769 7.48273 3.74769 7.59376 3.83984C7.61401 4.19684 7.78979 4.31792 8.1211 4.20312C8.25805 4.06419 8.27368 3.91184 8.16798 3.74609C8.05391 3.64948 7.92111 3.60652 7.76954 3.61719C7.3318 3.46822 7.16382 3.16745 7.26563 2.71484C7.37792 2.4303 7.58495 2.26624 7.88673 2.22266Z" fill="#0E0E10"/>
<path opacity="0.937" fill-rule="evenodd" clip-rule="evenodd" d="M1.37109 2.24619C1.4828 2.22395 1.57265 2.2552 1.64063 2.33994C1.85156 2.76182 2.0625 3.18369 2.27344 3.60557C2.28125 3.1915 2.28906 2.77744 2.29688 2.36338C2.35395 2.25267 2.44381 2.21751 2.56641 2.25791C2.59995 2.26881 2.62727 2.28835 2.64844 2.31651C2.68697 3.04164 2.69477 3.7682 2.67188 4.49619C2.59444 4.67265 2.47725 4.7039 2.32031 4.58994C2.10156 4.15244 1.88281 3.71495 1.66406 3.27744C1.65625 3.69932 1.64844 4.12119 1.64063 4.54307C1.52878 4.6749 1.4116 4.68271 1.28906 4.56651C1.27344 3.82431 1.27344 3.08214 1.28906 2.33994C1.30523 2.29658 1.33257 2.26533 1.37109 2.24619Z" fill="#0E0E10"/>
<path opacity="0.923" fill-rule="evenodd" clip-rule="evenodd" d="M4.88671 2.24578C4.95745 2.24192 5.02776 2.24583 5.09765 2.2575C5.13395 2.28595 5.16128 2.32111 5.17968 2.36297C5.18749 2.80047 5.19531 3.23796 5.20312 3.67547C5.35631 3.38067 5.52428 3.09551 5.70702 2.82C5.81036 2.79043 5.90022 2.80996 5.97656 2.87859C6.12499 3.14421 6.27344 3.40985 6.42187 3.67547C6.42967 3.23796 6.4375 2.80047 6.44531 2.36297C6.4637 2.32111 6.49103 2.28595 6.52734 2.2575C6.63067 2.22793 6.72053 2.24746 6.79687 2.31609C6.83556 3.04847 6.84339 3.78283 6.82031 4.51922C6.7222 4.68417 6.60501 4.6998 6.46874 4.56609C6.25 4.17546 6.03124 3.78485 5.81249 3.39422C5.59375 3.78485 5.37499 4.17546 5.15624 4.56609C5.04784 4.68759 4.93846 4.68759 4.82812 4.56609C4.78942 3.83372 4.78159 3.09935 4.80468 2.36297C4.82805 2.32024 4.8554 2.28118 4.88671 2.24578Z" fill="#0E0E10"/>
<path opacity="0.953" fill-rule="evenodd" clip-rule="evenodd" d="M1.25391 5.59717C2.16019 5.59326 3.06645 5.59717 3.97266 5.60889C4.0062 5.61979 4.03352 5.63934 4.05469 5.66748C4.09345 6.58738 4.10128 7.50925 4.07813 8.43311C4.05973 8.47497 4.0324 8.51012 3.99609 8.53858C3.07423 8.55421 2.15234 8.55421 1.23047 8.53858C1.20312 8.51123 1.17578 8.4839 1.14844 8.45655C1.13281 7.54248 1.13281 6.62842 1.14844 5.71436C1.17246 5.6631 1.20762 5.62403 1.25391 5.59717ZM1.51172 5.99561C1.51172 6.72217 1.51172 7.44873 1.51172 8.1753C2.24609 8.1753 2.98048 8.1753 3.71484 8.1753C3.71484 7.44873 3.71484 6.72217 3.71484 5.99561C2.98048 5.99561 2.24609 5.99561 1.51172 5.99561Z" fill="#0E0E10"/>
<path opacity="0.958" fill-rule="evenodd" clip-rule="evenodd" d="M4.86333 5.69092C6.03523 5.68701 7.20711 5.69092 8.37896 5.70264C8.49143 5.77462 8.51876 5.87228 8.46099 5.99561C8.43983 6.02376 8.4125 6.0433 8.37896 6.0542C7.20708 6.06984 6.03521 6.06984 4.86333 6.0542C4.79265 6.01837 4.7614 5.95977 4.76958 5.87842C4.76447 5.79484 4.79574 5.73236 4.86333 5.69092Z" fill="#0E0E10"/>
<path opacity="0.957" fill-rule="evenodd" clip-rule="evenodd" d="M4.86333 6.8628C6.04304 6.85888 7.22274 6.8628 8.4024 6.87452C8.53217 7.00295 8.52436 7.12014 8.37896 7.22608C7.20708 7.24171 6.03521 7.24171 4.86333 7.22608C4.79265 7.19024 4.7614 7.13165 4.76958 7.0503C4.76447 6.96672 4.79574 6.90423 4.86333 6.8628Z" fill="#0E0E10"/>
<path opacity="0.91" fill-rule="evenodd" clip-rule="evenodd" d="M4.93364 8.01123C6.05866 8.00732 7.18366 8.01123 8.30864 8.02295C8.48946 8.08084 8.53244 8.19412 8.43754 8.3628C8.41997 8.37747 8.40042 8.38919 8.37895 8.39795C7.21488 8.41359 6.05083 8.41359 4.88676 8.39795C4.764 8.32122 4.73667 8.21575 4.80473 8.08155C4.84502 8.04946 4.88798 8.02602 4.93364 8.01123Z" fill="#0E0E10"/>
<path opacity="0.915" fill-rule="evenodd" clip-rule="evenodd" d="M1.60545 9.18311C3.83984 9.17919 6.07421 9.18311 8.30857 9.19483C8.49551 9.31867 8.49551 9.44366 8.30857 9.56983C6.07421 9.58546 3.83982 9.58546 1.60545 9.56983C1.50781 9.54674 1.46093 9.48423 1.46482 9.38233C1.46367 9.27855 1.51054 9.21212 1.60545 9.18311Z" fill="#0E0E10"/>
<path opacity="0.915" fill-rule="evenodd" clip-rule="evenodd" d="M1.58209 10.355C3.83211 10.3511 6.08211 10.355 8.33209 10.3667C8.43549 10.4426 8.46284 10.5403 8.41412 10.6597C8.3832 10.7062 8.34024 10.7336 8.28521 10.7417C6.06645 10.7573 3.84772 10.7573 1.62896 10.7417C1.47341 10.6843 1.43044 10.5788 1.50005 10.4253C1.52689 10.3987 1.55423 10.3752 1.58209 10.355Z" fill="#0E0E10"/>
</g>
<defs>
<clipPath id="clip0_7_1100">
<rect width="12" height="12" fill="white" transform="translate(0 0.5)"/>
</clipPath>
</defs>
</svg>
