<svg width="18" height="18" viewBox="0 0 18 18" fill="none" xmlns="http://www.w3.org/2000/svg">
<g clip-path="url(#clip0_1_91)">
<path opacity="0.972" fill-rule="evenodd" clip-rule="evenodd" d="M8.34961 0.158327C11.7012 0.0442181 14.3555 1.33328 16.3125 4.02551C17.9693 6.65998 18.2506 9.43733 17.1563 12.3575C15.8916 15.1966 13.7412 16.9602 10.7051 17.6486C7.30597 18.1954 4.46415 17.1934 2.17969 14.6427C0.28207 12.2213 -0.28043 9.51425 0.492192 6.52161C1.5823 3.18149 3.83815 1.11313 7.25977 0.31653C7.62694 0.254622 7.99021 0.201888 8.34961 0.158327ZM8.8418 1.63489C11.9636 1.7303 14.2312 3.15998 15.6445 5.92395C16.6588 8.32087 16.5065 10.6412 15.1875 12.8849C13.7069 15.07 11.6385 16.2184 8.98243 16.3302C5.92752 16.1778 3.70684 14.7481 2.32032 12.0411C1.33261 9.7223 1.44979 7.4606 2.67188 5.25598C4.10355 2.99581 6.16019 1.78878 8.8418 1.63489Z" fill="white"/>
<path opacity="0.975" fill-rule="evenodd" clip-rule="evenodd" d="M7.43556 5.29078C8.24422 5.28491 9.05281 5.29078 9.86134 5.30835C10.5468 5.31834 11.1679 5.51757 11.7246 5.90601C12.0237 6.18174 12.2288 6.51573 12.3399 6.90796C12.528 7.66196 12.4811 8.40024 12.1992 9.12281C11.818 9.79552 11.2379 10.1764 10.459 10.2654C9.80516 10.3421 9.14893 10.3714 8.49024 10.3533C8.49611 11.1385 8.49024 11.9237 8.47267 12.7087C8.36899 13.2912 8.0233 13.5315 7.43556 13.4294C7.16018 13.3416 6.97852 13.1599 6.89063 12.8845C6.86718 10.5291 6.86718 8.17359 6.89063 5.81812C6.97694 5.53838 7.15856 5.3626 7.43556 5.29078ZM8.49024 6.62671C8.49024 7.41186 8.49024 8.19704 8.49024 8.98218C8.98338 8.99034 9.47557 8.97276 9.96681 8.92945C10.3534 8.87998 10.6171 8.67492 10.7578 8.31421C11.0358 7.28185 10.6432 6.72519 9.58009 6.64429C9.21699 6.62671 8.85372 6.62088 8.49024 6.62671Z" fill="white"/>
</g>
<defs>
<clipPath id="clip0_1_91">
<rect width="18" height="18" fill="white"/>
</clipPath>
</defs>
</svg>
