<svg width="331" height="96" viewBox="0 0 331 96" fill="none" xmlns="http://www.w3.org/2000/svg">
<g clip-path="url(#clip0_182_734)">
<path opacity="0.985" fill-rule="evenodd" clip-rule="evenodd" d="M61.1793 19.9453C62.273 19.9453 63.3668 19.9453 64.4605 19.9453C70.8272 21.1714 74.6554 24.9631 75.9449 31.3203C75.9449 32.487 75.9449 33.6536 75.9449 34.8203C74.6702 41.1444 70.8604 44.9361 64.5152 46.1953C64.4788 49.6589 64.4422 53.1224 64.4058 56.5859C63.3863 56.0578 62.3107 55.6931 61.1793 55.4922C61.1975 52.393 61.1793 49.294 61.1246 46.1953C55.954 45.2898 52.3811 42.4096 50.4058 37.5547C48.6292 31.6243 50.0694 26.6477 54.7261 22.625C56.6566 21.1859 58.8076 20.2927 61.1793 19.9453ZM60.6324 26.5078C61.7268 26.4896 62.8205 26.5078 63.9136 26.5625C67.3483 27.0078 68.9343 28.9583 68.6714 32.4141C68.1428 34.4011 66.885 35.6589 64.898 36.1875C64.0269 36.3076 63.1519 36.3623 62.273 36.3516C62.303 37.0877 62.2483 37.8169 62.1089 38.5391C61.6233 39.5011 60.876 39.7746 59.8668 39.3594C59.3703 39.0436 59.0969 38.588 59.0464 37.9922C58.9735 34.7109 58.9735 31.4297 59.0464 28.1484C59.1571 27.1812 59.6857 26.6343 60.6324 26.5078Z" fill="white"/>
<path opacity="0.968" fill-rule="evenodd" clip-rule="evenodd" d="M62.2734 29.789C63.0399 29.7709 63.8056 29.7891 64.5703 29.8437C65.552 30.4072 65.8254 31.2275 65.3906 32.3047C65.263 32.5781 65.0625 32.7786 64.7891 32.9062C63.9628 33.0629 63.1243 33.1175 62.2734 33.0703C62.2734 31.9765 62.2734 30.8828 62.2734 29.789Z" fill="white"/>
<path opacity="0.992" fill-rule="evenodd" clip-rule="evenodd" d="M35.3672 45.3203C37.5183 45.3203 39.6692 45.3203 41.8203 45.3203C41.8203 48.6016 41.8203 51.8828 41.8203 55.1641C37.0802 55.2005 32.3406 55.1641 27.6016 55.0547C28.4219 53.1953 29.2422 51.3359 30.0625 49.4766C31.1773 47.249 32.9455 45.8637 35.3672 45.3203Z" fill="white"/>
<path opacity="0.991" fill-rule="evenodd" clip-rule="evenodd" d="M45.1016 45.3203C47.0706 45.3021 49.0394 45.3203 51.0078 45.375C53.1521 45.8354 54.811 46.9838 55.9844 48.8203C56.9141 50.8985 57.8438 52.9766 58.7734 55.0547C54.2168 55.1641 49.6594 55.2005 45.1016 55.1641C45.1016 51.8828 45.1016 48.6016 45.1016 45.3203Z" fill="white"/>
<path opacity="0.985" fill-rule="evenodd" clip-rule="evenodd" d="M19.9453 70.586C19.9453 68.1433 19.9453 65.7005 19.9453 63.2578C20.6182 60.7439 22.2224 59.1579 24.7578 58.5C36.7923 58.392 48.8236 58.4285 60.8516 58.6094C62.3154 58.9768 63.6279 59.6331 64.7891 60.5782C62.8836 60.7276 62.3185 61.6573 63.0938 63.3672C63.4171 63.6655 63.7999 63.8296 64.2422 63.8594C65.263 63.8958 66.2839 63.9324 67.3047 63.9688C67.5697 64.5084 67.7702 65.0735 67.9063 65.6641C68.0772 67.3002 68.1136 68.9409 68.0156 70.586C67.8516 71.0417 67.5417 71.3516 67.0859 71.5157C65.9199 71.5703 64.7532 71.5886 63.5859 71.5703C63.6296 67.7338 61.916 65.0176 58.4453 63.4219C54.3363 62.1544 51.0369 63.2664 48.5469 66.7578C47.648 68.2386 47.2652 69.8427 47.3984 71.5703C44.9558 71.5703 42.513 71.5703 40.0703 71.5703C40.114 67.7338 38.4004 65.0176 34.9297 63.4219C30.8207 62.1544 27.5212 63.2664 25.0313 66.7578C24.1324 68.2386 23.7496 69.8427 23.8828 71.5703C22.8978 71.5885 21.9134 71.5703 20.9297 71.5157C20.4719 71.331 20.1438 71.0212 19.9453 70.586Z" fill="white"/>
<path opacity="0.975" fill-rule="evenodd" clip-rule="evenodd" d="M33.0702 75.9454C32.341 75.9454 31.6119 75.9454 30.8827 75.9454C28.0225 74.9677 26.7647 72.9624 27.1093 69.9297C28.1463 66.831 30.2791 65.6096 33.5077 66.2657C36.1316 67.3376 37.2435 69.288 36.8437 72.1172C36.295 74.1059 35.0372 75.3819 33.0702 75.9454Z" fill="white"/>
<path opacity="0.975" fill-rule="evenodd" clip-rule="evenodd" d="M56.5859 75.9454C55.8567 75.9454 55.1276 75.9454 54.3984 75.9454C51.5381 74.9677 50.2803 72.9624 50.6249 69.9297C51.6619 66.831 53.7947 65.6096 57.0234 66.2657C59.6473 67.3376 60.7592 69.288 60.3593 72.1172C59.8107 74.1059 58.5529 75.3819 56.5859 75.9454Z" fill="white"/>
</g>
<rect x="1.5" y="1.5" width="93" height="93" rx="10.5" stroke="white" stroke-width="3"/>
<path d="M137.445 65.5C132.467 65.5 128.304 63.8143 124.956 60.443C121.652 57.0273 120 52.8796 120 48C120 43.0317 121.652 38.884 124.956 35.557C128.304 32.1857 132.467 30.5 137.445 30.5C140.661 30.5 143.59 31.2763 146.233 32.8289C148.877 34.3815 150.859 36.4664 152.181 39.0837L146.035 42.6768C145.286 41.0798 144.141 39.8378 142.599 38.9506C141.101 38.019 139.361 37.5532 137.379 37.5532C134.471 37.5532 132.026 38.5513 130.044 40.5475C128.106 42.5881 127.137 45.0722 127.137 48C127.137 50.9278 128.106 53.4119 130.044 55.4525C132.026 57.4487 134.471 58.4468 137.379 58.4468C139.317 58.4468 141.057 58.0032 142.599 57.116C144.185 56.1844 145.374 54.9202 146.167 53.3232L152.313 56.8498C150.903 59.5114 148.855 61.6185 146.167 63.1711C143.524 64.7237 140.617 65.5 137.445 65.5Z" fill="white"/>
<path d="M164.669 52.4582L181.585 31.365H187.07V64.635H180.066V43.4753L163.149 64.635H157.665V31.365H164.669V52.4582Z" fill="white"/>
<path d="M227.267 51.0608H200.967C201.496 53.545 202.685 55.4747 204.536 56.8498C206.43 58.225 208.765 58.9125 211.54 58.9125C215.284 58.9125 218.126 57.5374 220.064 54.7871L225.945 58.2472C222.729 63.0824 217.906 65.5 211.474 65.5C206.144 65.5 201.804 63.8587 198.456 60.576C195.152 57.249 193.5 53.057 193.5 48C193.5 43.076 195.13 38.9284 198.39 35.557C201.606 32.1857 205.791 30.5 210.945 30.5C215.747 30.5 219.712 32.2079 222.84 35.6236C225.967 39.0393 227.531 43.1869 227.531 48.0665C227.531 48.9537 227.443 49.9518 227.267 51.0608ZM200.901 45.2053H220.329C219.844 42.5881 218.743 40.5697 217.025 39.1502C215.351 37.7307 213.302 37.0209 210.879 37.0209C208.236 37.0209 206.033 37.7529 204.271 39.2167C202.509 40.6806 201.386 42.6768 200.901 45.2053Z" fill="white"/>
<path d="M249.212 65.5C244.234 65.5 240.071 63.8143 236.723 60.443C233.419 57.0273 231.767 52.8796 231.767 48C231.767 43.0317 233.419 38.884 236.723 35.557C240.071 32.1857 244.234 30.5 249.212 30.5C252.428 30.5 255.357 31.2763 258 32.8289C260.644 34.3815 262.626 36.4664 263.948 39.0837L257.802 42.6768C257.053 41.0798 255.908 39.8378 254.366 38.9506C252.868 38.019 251.128 37.5532 249.146 37.5532C246.238 37.5532 243.793 38.5513 241.811 40.5475C239.873 42.5881 238.904 45.0722 238.904 48C238.904 50.9278 239.873 53.4119 241.811 55.4525C243.793 57.4487 246.238 58.4468 249.146 58.4468C251.084 58.4468 252.824 58.0032 254.366 57.116C255.952 56.1844 257.141 54.9202 257.934 53.3232L264.08 56.8498C262.67 59.5114 260.622 61.6185 257.934 63.1711C255.291 64.7237 252.384 65.5 249.212 65.5Z" fill="white"/>
<path d="M265.413 31.365H294.158V38.2852H283.387V64.635H276.25V38.2852H265.413V31.365Z" fill="white"/>
<path d="M323.863 36.0894V31.365H331V64.635H323.863V59.8441C321.176 63.6147 317.322 65.5 312.3 65.5C307.762 65.5 303.885 63.8143 300.67 60.443C297.454 57.0716 295.846 52.924 295.846 48C295.846 43.076 297.454 38.9284 300.67 35.557C303.885 32.1857 307.762 30.5 312.3 30.5C317.322 30.5 321.176 32.3631 323.863 36.0894ZM305.956 55.6521C307.938 57.6483 310.427 58.6464 313.423 58.6464C316.419 58.6464 318.907 57.6483 320.89 55.6521C322.872 53.6115 323.863 51.0608 323.863 48C323.863 44.9392 322.872 42.4106 320.89 40.4144C318.907 38.3739 316.419 37.3536 313.423 37.3536C310.427 37.3536 307.938 38.3739 305.956 40.4144C303.974 42.4106 302.982 44.9392 302.982 48C302.982 51.0165 303.974 53.5672 305.956 55.6521Z" fill="white"/>
<defs>
<clipPath id="clip0_182_734">
<rect width="56" height="56" fill="white" transform="translate(20 20)"/>
</clipPath>
</defs>
</svg>
