<svg width="18" height="19" viewBox="0 0 18 19" fill="none" xmlns="http://www.w3.org/2000/svg">
<path opacity="0.977" fill-rule="evenodd" clip-rule="evenodd" d="M6.20508 0.482422C6.3457 0.482422 6.48633 0.482422 6.62695 0.482422C8.46724 1.32038 10.3188 2.14069 12.1816 2.94336C13.8414 2.13106 15.4937 1.31075 17.1387 0.482422C17.2793 0.482422 17.4199 0.482422 17.5605 0.482422C17.6403 0.534304 17.7223 0.587038 17.8066 0.640625C17.8704 0.727793 17.929 0.815684 17.9824 0.904297C17.9824 5.76757 17.9824 10.6309 17.9824 15.4941C17.9093 15.6202 17.8156 15.7316 17.7012 15.8281C15.9284 16.7145 14.1589 17.5993 12.3926 18.4824C12.2637 18.4824 12.1348 18.4824 12.0059 18.4824C10.1373 17.6567 8.26812 16.8247 6.39844 15.9863C4.54247 16.8293 2.68504 17.6613 0.826172 18.4824C0.685547 18.4824 0.544922 18.4824 0.404297 18.4824C0.216797 18.3887 0.076172 18.248 -0.0175781 18.0605C-0.0175781 13.1973 -0.0175781 8.33397 -0.0175781 3.4707C0.0950203 3.2704 0.259083 3.12392 0.474609 3.03125C2.3898 2.18423 4.29996 1.33462 6.20508 0.482422ZM5.64258 2.16992C5.67773 2.16992 5.71289 2.16992 5.74805 2.16992C5.75392 6.38867 5.74805 10.6074 5.73047 14.8262C4.25468 15.4997 2.77226 16.1559 1.2832 16.7949C1.27734 12.5762 1.2832 8.35742 1.30078 4.13867C2.7525 3.48516 4.19977 2.82892 5.64258 2.16992ZM7.08398 2.16992C8.57239 2.81156 10.0548 3.46781 11.5312 4.13867C11.5547 8.36913 11.5547 12.5996 11.5312 16.8301C10.0632 16.1693 8.59247 15.5131 7.11914 14.8613C7.08398 10.6309 7.07228 6.40045 7.08398 2.16992ZM16.6465 2.20508C16.6875 6.41796 16.6933 10.6367 16.6641 14.8613C15.407 15.4986 14.1473 16.1315 12.8848 16.7598C12.8379 12.541 12.8379 8.32227 12.8848 4.10352C14.1463 3.47863 15.4002 2.84582 16.6465 2.20508Z" fill="#A280C0"/>
</svg>
