<svg width="20" height="21" viewBox="0 0 20 21" fill="none" xmlns="http://www.w3.org/2000/svg">
<circle cx="10" cy="10.5" r="10" fill="#A280C0"/>
<path d="M6 10C5.72386 10 5.5 10.2239 5.5 10.5C5.5 10.7761 5.72386 11 6 11V10ZM14.3536 10.8536C14.5488 10.6583 14.5488 10.3417 14.3536 10.1464L11.1716 6.96447C10.9763 6.7692 10.6597 6.7692 10.4645 6.96447C10.2692 7.15973 10.2692 7.47631 10.4645 7.67157L13.2929 10.5L10.4645 13.3284C10.2692 13.5237 10.2692 13.8403 10.4645 14.0355C10.6597 14.2308 10.9763 14.2308 11.1716 14.0355L14.3536 10.8536ZM6 11H14V10H6V11Z" fill="white"/>
</svg>
