<svg width="18" height="18" viewBox="0 0 18 18" fill="none" xmlns="http://www.w3.org/2000/svg">
<path opacity="0.966" fill-rule="evenodd" clip-rule="evenodd" d="M6.80273 -0.0175781C7.29492 -0.0175781 7.78711 -0.0175781 8.2793 -0.0175781C10.8523 0.292702 12.8152 1.54661 14.168 3.74414C15.2983 5.84684 15.439 8.01482 14.5898 10.248C14.2415 11.0508 13.7786 11.7774 13.2012 12.4277C14.7593 13.98 16.3237 15.5269 17.8945 17.0684C17.9159 17.1234 17.9452 17.1703 17.9824 17.209C17.9824 17.3379 17.9824 17.4668 17.9824 17.5957C17.9121 17.7832 17.7832 17.9121 17.5957 17.9824C17.4668 17.9824 17.3379 17.9824 17.209 17.9824C17.1363 17.9517 17.066 17.9107 16.998 17.8594C15.4448 16.3237 13.8862 14.7944 12.3223 13.2715C9.92401 15.0077 7.33416 15.3534 4.55273 14.3086C1.91298 13.0776 0.389542 11.0209 -0.0175781 8.13867C-0.0175781 7.66993 -0.0175781 7.20116 -0.0175781 6.73242C0.350282 3.98007 1.76825 1.97032 4.23633 0.703125C5.06085 0.335996 5.9163 0.0957611 6.80273 -0.0175781ZM7.29492 1.14258C9.60841 1.13627 11.4541 2.05034 12.832 3.88477C14.047 5.75652 14.2579 7.73698 13.4648 9.82617C12.5696 11.8067 11.0637 13.0547 8.94727 13.5703C6.74775 13.9903 4.81416 13.463 3.14648 11.9883C1.22586 10.0181 0.716091 7.72703 1.61719 5.11523C2.50319 3.09271 4.02075 1.82123 6.16992 1.30078C6.54718 1.22595 6.92216 1.17321 7.29492 1.14258Z" fill="white"/>
</svg>
