<svg width="116" height="116" viewBox="0 0 116 116" fill="none" xmlns="http://www.w3.org/2000/svg">
<circle cx="58" cy="58" r="58" fill="#886AA9"/>
<path d="M38.181 58.0605C48.65 53.6152 55.631 50.6845 59.1239 49.2686C69.0969 45.2257 71.1692 44.5234 72.5199 44.5002C72.817 44.4951 73.4813 44.5669 73.9115 44.9072C74.2748 45.1945 74.3748 45.5826 74.4226 45.855C74.4704 46.1274 74.53 46.748 74.4827 47.2328C73.9422 52.7672 71.6037 66.1975 70.414 72.3961C69.9106 75.0189 68.9194 75.8983 67.9598 75.9844C65.8744 76.1714 64.2908 74.6412 62.2709 73.3507C59.1102 71.3314 57.3246 70.0744 54.2566 68.104C50.711 65.8268 53.0095 64.5752 55.0301 62.5298C55.5589 61.9945 64.7475 53.849 64.9253 53.11C64.9476 53.0176 64.9682 52.6731 64.7582 52.4912C64.5483 52.3093 64.2383 52.3715 64.0147 52.421C63.6977 52.4911 58.6485 55.7438 48.867 62.1789C47.4338 63.1381 46.1356 63.6054 44.9725 63.581C43.6903 63.554 41.2238 62.8744 39.3902 62.2935C37.1412 61.581 35.3538 61.2043 35.5094 59.9942C35.5905 59.364 36.4811 58.7194 38.181 58.0605Z" fill="white"/>
</svg>
