<svg width="66" height="66" viewBox="0 0 66 66" fill="none" xmlns="http://www.w3.org/2000/svg">
<g id="Telegram">
<g id="Telegram B">
<circle id="Box" cx="33" cy="33" r="32" fill="white" stroke="#886AA9" stroke-width="1.95181"/>
<path id="Logo" d="M22.0656 33.0334C27.8416 30.5808 31.6932 28.9639 33.6203 28.1827C39.1227 25.9522 40.266 25.5647 41.0112 25.5519C41.1751 25.5491 41.5416 25.5887 41.779 25.7764C41.9794 25.9349 42.0346 26.1491 42.061 26.2994C42.0874 26.4496 42.1202 26.792 42.0941 27.0595C41.7959 30.113 40.5057 37.5228 39.8493 40.9427C39.5716 42.3898 39.0247 42.875 38.4953 42.9225C37.3447 43.0256 36.471 42.1814 35.3566 41.4694C33.6128 40.3553 32.6276 39.6618 30.9349 38.5747C28.9787 37.3183 30.2468 36.6277 31.3617 35.4992C31.6534 35.2039 36.723 30.7098 36.8211 30.3021C36.8334 30.2511 36.8448 30.0611 36.7289 29.9607C36.6131 29.8604 36.4421 29.8947 36.3187 29.922C36.1438 29.9607 33.358 31.7552 27.9613 35.3057C27.1706 35.8349 26.4544 36.0927 25.8126 36.0792C25.1052 36.0643 23.7444 35.6893 22.7327 35.3688C21.4919 34.9757 20.5058 34.7679 20.5916 34.1003C20.6364 33.7526 21.1277 33.397 22.0656 33.0334Z" fill="#886AA9"/>
</g>
</g>
</svg>
