<svg width="18" height="19" viewBox="0 0 18 19" fill="none" xmlns="http://www.w3.org/2000/svg">
<path opacity="0.991" fill-rule="evenodd" clip-rule="evenodd" d="M8.17383 0.482422C8.71288 0.482422 9.25196 0.482422 9.79102 0.482422C12.9426 0.8652 15.3156 2.4238 16.9102 5.1582C17.4971 6.26461 17.8545 7.43647 17.9824 8.67383C17.9824 9.21288 17.9824 9.75196 17.9824 10.291C17.5996 13.4426 16.0411 15.8156 13.3066 17.4102C12.2002 17.9971 11.0284 18.3545 9.79102 18.4824C9.25196 18.4824 8.71288 18.4824 8.17383 18.4824C5.02228 18.0996 2.64924 16.5411 1.05469 13.8066C0.467764 12.7002 0.110341 11.5284 -0.0175781 10.291C-0.0175781 9.75196 -0.0175781 9.21288 -0.0175781 8.67383C0.418584 5.27492 2.16468 2.80813 5.2207 1.27344C6.16809 0.855018 7.15247 0.591348 8.17383 0.482422ZM12.8145 5.93164C13.2713 5.89445 13.4647 6.10538 13.3945 6.56445C12.9068 8.89746 12.4147 11.2295 11.918 13.5605C11.8043 14.095 11.5172 14.2181 11.0566 13.9297C10.3337 13.3824 9.60128 12.8492 8.85938 12.3301C8.4555 12.7105 8.0512 13.0914 7.64648 13.4727C7.54091 13.5428 7.43544 13.5721 7.33008 13.5605C7.38949 12.8107 7.45397 12.0607 7.52344 11.3105C8.92849 10.0579 10.323 8.79227 11.707 7.51367C11.7353 7.41787 11.7001 7.3593 11.6016 7.33789C11.4963 7.36517 11.3967 7.4062 11.3027 7.46094C9.60353 8.5332 7.90429 9.60547 6.20508 10.6777C5.44461 10.434 4.68292 10.1938 3.91992 9.95703C3.62668 9.81532 3.60323 9.63954 3.84961 9.42969C6.84 8.25927 9.82828 7.09324 12.8145 5.93164Z" fill="#A280C0"/>
</svg>
