<svg width="18" height="19" viewBox="0 0 18 19" fill="none" xmlns="http://www.w3.org/2000/svg">
<path opacity="0.99" fill-rule="evenodd" clip-rule="evenodd" d="M8.20898 0.482422C8.73633 0.482422 9.26367 0.482422 9.79102 0.482422C12.9426 0.8652 15.3156 2.4238 16.9102 5.1582C17.4971 6.26461 17.8545 7.43647 17.9824 8.67383C17.9824 9.20117 17.9824 9.72852 17.9824 10.2559C17.5435 13.7823 15.7154 16.2959 12.498 17.7969C11.6127 18.1588 10.6986 18.3874 9.75586 18.4824C9.22852 18.4824 8.70117 18.4824 8.17383 18.4824C4.66618 18.0271 2.16424 16.199 0.667969 12.998C0.311643 12.1235 0.0831277 11.2211 -0.0175781 10.291C-0.0175781 9.75196 -0.0175781 9.21288 -0.0175781 8.67383C0.327199 5.71163 1.74517 3.42062 4.23633 1.80078C5.46405 1.06146 6.78825 0.622006 8.20898 0.482422ZM7.78711 6.56445C8.35063 6.55387 8.91313 6.57145 9.47461 6.61719C9.76525 6.66177 9.92345 6.83168 9.94922 7.12695C9.95509 7.24413 9.96093 7.36134 9.9668 7.47852C9.9315 8.07593 9.92563 8.67358 9.94922 9.27148C9.95801 9.38588 9.99316 9.49135 10.0547 9.58789C10.147 9.67536 10.2466 9.68123 10.3535 9.60547C10.6786 9.27697 10.9657 8.91954 11.2148 8.5332C11.5027 8.01029 11.7663 7.47707 12.0059 6.93359C12.0527 6.91014 12.0996 6.88673 12.1465 6.86328C12.8731 6.83983 13.5996 6.83983 14.3262 6.86328C14.5425 6.91479 14.6187 7.04954 14.5547 7.26758C14.4487 7.59604 14.2963 7.90071 14.0977 8.18164C13.6992 8.72069 13.3008 9.25978 12.9023 9.79883C12.7317 10.02 12.72 10.2426 12.8672 10.4668C13.3981 10.9624 13.8903 11.4897 14.3438 12.0488C14.4744 12.2104 14.5622 12.392 14.6074 12.5938C14.5461 12.8073 14.4055 12.9362 14.1855 12.9805C13.5996 13.0039 13.0137 13.0039 12.4277 12.9805C12.1935 12.957 11.9825 12.875 11.7949 12.7344C11.4306 12.3818 11.079 12.0185 10.7402 11.6445C10.5977 11.4992 10.4336 11.464 10.248 11.5391C10.1936 11.5817 10.1526 11.6345 10.125 11.6973C10.0294 12.0464 9.94739 12.3979 9.87891 12.752C9.80638 12.8558 9.70678 12.9202 9.58008 12.9453C8.38642 13.0746 7.33173 12.7582 6.41602 11.9961C5.6687 11.2606 5.04176 10.4344 4.53516 9.51758C4.13202 8.76995 3.75704 8.00821 3.41016 7.23242C3.36701 7.0886 3.39631 6.96555 3.49805 6.86328C3.65055 6.847 3.80289 6.82943 3.95508 6.81055C4.43503 6.8373 4.91551 6.85488 5.39648 6.86328C5.54896 6.91036 5.672 6.99825 5.76562 7.12695C6.09082 7.96525 6.52444 8.73869 7.06641 9.44727C7.17595 9.55122 7.299 9.63324 7.43555 9.69336C7.51278 9.68112 7.57723 9.64597 7.62891 9.58789C7.66962 9.43682 7.70477 9.28446 7.73438 9.13086C7.75782 8.63867 7.75782 8.14648 7.73438 7.6543C7.69838 7.30186 7.50502 7.09679 7.1543 7.03906C7.12417 7.01484 7.10075 6.98555 7.08398 6.95117C7.12238 6.85998 7.18098 6.78379 7.25977 6.72266C7.42936 6.63336 7.60514 6.58063 7.78711 6.56445Z" fill="#A280C0"/>
</svg>
