<svg width="37" height="32" viewBox="0 0 37 32" fill="none" xmlns="http://www.w3.org/2000/svg">
<g id="Group 20">
<g id="Group">
<path id="Vector" opacity="0.992" fill-rule="evenodd" clip-rule="evenodd" d="M18.1954 0.00258307C19.3648 -0.0377476 20.3152 0.394197 21.0467 1.29843C25.9822 9.80445 30.9178 18.3106 35.8533 26.8166C36.895 28.5488 36.6783 30.0939 35.203 31.4517C34.7714 31.7169 34.3045 31.883 33.8024 31.9501C23.5978 32.0166 13.3932 32.0166 3.18867 31.9501C1.18458 31.4958 0.300857 30.2498 0.537483 28.2121C0.681877 27.7248 0.881967 27.2597 1.13775 26.8166C6.07326 18.3106 11.0089 9.80445 15.9444 1.29843C16.5337 0.565289 17.2841 0.133334 18.1954 0.00258307Z" fill="#FFB400"/>
</g>
<g id="Group_2">
<path id="Vector_2" fill-rule="evenodd" clip-rule="evenodd" d="M17.7963 9.57205C18.6486 9.42751 19.399 9.62687 20.0473 10.1701C20.1473 10.3695 20.2474 10.5689 20.3474 10.7682C20.4141 13.8251 20.4141 16.8819 20.3474 19.9388C20.1973 20.6199 19.7805 21.0353 19.0968 21.1848C18.4216 21.3175 17.7881 21.2178 17.196 20.8858C16.9228 20.624 16.7394 20.3083 16.6458 19.9388C16.579 16.8819 16.579 13.8251 16.6458 10.7682C16.8477 10.1851 17.2312 9.78636 17.7963 9.57205Z" fill="#FCF3D8"/>
</g>
<g id="Group_3">
<path id="Vector_3" fill-rule="evenodd" clip-rule="evenodd" d="M17.895 24.0257C19.8442 23.9239 20.6278 24.821 20.2461 26.7171C19.5128 27.801 18.5624 28.0502 17.3948 27.4647C16.5264 26.673 16.3763 25.7593 16.9446 24.7235C17.2272 24.4268 17.544 24.1943 17.895 24.0257Z" fill="#FCF3D7"/>
</g>
</g>
</svg>
