<svg width="66" height="66" viewBox="0 0 66 66" fill="none" xmlns="http://www.w3.org/2000/svg">
<g id="YouTube">
<g id="YouTube B">
<circle id="Box" cx="33" cy="33" r="32" fill="white" stroke="#886AA9" stroke-width="1.95181"/>
<g id="Logo">
<path id="Logo_2" fill-rule="evenodd" clip-rule="evenodd" d="M43.3169 24.7216C44.4558 25.0217 45.3567 25.9054 45.6626 27.0225C46.2236 29.0566 46.2406 33.2748 46.2406 33.2748C46.2406 33.2748 46.2406 37.5098 45.6796 39.5272C45.3737 40.6443 44.4728 41.528 43.3339 41.8281C41.2772 42.3783 32.9992 42.3783 32.9992 42.3783C32.9992 42.3783 24.7212 42.3783 22.6645 41.8281C21.5256 41.528 20.6247 40.6443 20.3187 39.5272C19.7578 37.4931 19.7578 33.2748 19.7578 33.2748C19.7578 33.2748 19.7578 29.0566 20.3017 27.0391C20.6077 25.922 21.5086 25.0384 22.6475 24.7383C24.7042 24.1881 32.9822 24.1714 32.9822 24.1714C32.9822 24.1714 41.2602 24.1714 43.3169 24.7216ZM37.2147 33.2747L30.3475 37.1762V29.3733L37.2147 33.2747Z" fill="#886AA9"/>
</g>
</g>
</g>
</svg>
